# xmcd
#
# Track frame offsets: 
#        150
#        7990
#        27663
#        48774
#        70943
#        89249
#        108492
#        128014
#        147307
#        167225
#        183000
#        203925
#        221394
#        237175
#        254633
#        272660
#        293978
#        305852
#
# Disc length: 4101 seconds
#
# Revision: 0
# Processed by: cddbd v1.5.2PL0 Copyright (c) Steve Scherf et al.
# Submitted via: ExactAudioCopy v0.99pb4
#
DISCID=13100312
DTITLE=Various Artist - Realizme Ent. Presents - Nationwide R.A.N. (United We
DTITLE=Stand)
DYEAR=2002
DGENRE=Rap
TTITLE0=Intro - Kamikazi, Ralph Sleaze, Dank of Fatal Konnection
TTITLE1=Us Real Niggas - Too Short, J Slim
TTITLE2=We Still Here - Fatal Konnektion
TTITLE3=Gorilla Milk - Scarface Al Kapone, E-40, 8Ball
TTITLE4=Bend One and Spin One - Taylor Made
TTITLE5=All I Know - I.B.G.
TTITLE6=No Snitches - Keak Da Sneak, Kamikazi Of Fatal Konnektion
TTITLE7=Pimps and G's - Rappin' 4-Tay, Suga Free
TTITLE8=Gimme Da Loot - The Whoridas
TTITLE9=So Gangsta - Nate Dogg, D-Shot
TTITLE10=Party Goin' Down Tonight - Kid Frost, Jay Tee
TTITLE11=Anything For Love - Remixx, Flawless Of Fatal Konnektion
TTITLE12=Thought Patterns - The Front Office
TTITLE13=Da Whole Damn Yay - Rappin' 4-Tay, Kamikazi Of Fatal Konnekti
TTITLE13=on
TTITLE14=I Can Do Without You - Flawless, Dank, S-Ski Of Fatal Konnekt
TTITLE14=ion
TTITLE15=Aint Nobody - Fatal Konnektion
TTITLE16=Outro - Nay-Nay, Fatal Konnektion
TTITLE17=Bonus Track
EXTD=
EXTT0=
EXTT1=
EXTT2=
EXTT3=
EXTT4=
EXTT5=
EXTT6=
EXTT7=
EXTT8=
EXTT9=
EXTT10=
EXTT11=
EXTT12=
EXTT13=
EXTT14=
EXTT15=
EXTT16=
EXTT17=
PLAYORDER=
